<svg version="1.1" id="Layer_1" xmlns="http://www.w3.org/2000/svg" xmlns:xlink="http://www.w3.org/1999/xlink" x="0px" y="0px"
	 width="100%" viewBox="0 0 1677 232" enable-background="new 0 0 1677 232" xml:space="preserve">
<path fill="#000001" opacity="1.000000" stroke="none" 
	d="
M1250.000000,233.000000 
	C833.387756,233.000000 417.275574,233.000000 1.081672,233.000000 
	C1.081672,155.731308 1.081672,78.462502 1.081672,1.096849 
	C560.000000,1.096849 1119.000000,1.096849 1677.971680,1.096849 
	C1677.971680,78.391228 1677.971680,155.695618 1677.971680,233.000000 
	C1535.462280,233.000000 1392.981201,233.000000 1250.000000,233.000000 
M352.400543,148.788132 
	C348.466003,143.418503 344.346283,138.172485 340.653809,132.641266 
	C337.535675,127.970383 334.995422,122.917938 332.044922,118.129532 
	C329.675476,114.284134 326.972626,110.644203 324.601868,106.799530 
	C321.565948,101.876160 318.688660,96.853859 315.806824,91.837540 
	C315.250854,90.869743 314.968384,89.740189 314.595123,88.672874 
	C313.215576,84.728271 312.695343,80.149399 310.314911,76.954079 
	C304.301575,68.882210 298.692169,60.726803 294.547821,51.469311 
	C293.467865,49.056953 289.505676,47.934929 285.951324,46.121342 
	C276.300568,46.126244 266.649780,46.131149 256.197205,45.920662 
	C252.400604,45.402874 252.341293,47.815903 252.340973,50.580894 
	C252.335052,101.746780 252.275711,152.912674 252.255890,204.078552 
	C252.253311,210.720978 255.047134,213.523911 261.555328,213.582199 
	C266.221619,213.623993 270.888672,213.619827 275.555115,213.592667 
	C282.747894,213.550812 285.359772,210.907883 285.362854,203.615631 
	C285.376678,171.115891 285.372192,138.616165 285.374298,106.116432 
	C285.374451,103.891136 285.374329,101.665848 285.374329,99.440552 
	C285.802246,99.379547 286.230133,99.318542 286.658051,99.257538 
	C288.186340,102.424988 289.258362,105.934685 291.329041,108.695290 
	C297.387756,116.772675 302.843048,125.065727 307.220612,134.276672 
	C310.802063,141.812469 316.495941,148.326401 321.044861,155.426910 
	C323.919128,159.913422 326.348083,164.682617 329.088348,169.258194 
	C332.828949,175.504150 336.742462,181.646927 340.458252,187.907303 
	C344.177246,194.173050 348.128510,200.346741 351.242340,206.909790 
	C353.312225,211.272507 355.628448,214.037552 360.752594,213.921066 
	C367.582306,213.765839 374.418274,213.900452 381.251526,213.881348 
	C388.309692,213.861618 388.838440,213.192780 388.040344,205.168610 
	C388.147430,203.345322 388.345184,201.522186 388.347900,199.698746 
	C388.387329,173.045593 388.407318,146.392395 388.418365,119.739212 
	C388.427734,97.083939 388.477783,74.428238 388.310303,51.774193 
	C388.296661,49.931866 386.742523,48.100925 384.985840,46.146450 
	C375.689301,46.186577 366.392731,46.226707 356.375488,46.281982 
	C355.793854,48.360741 354.713654,50.437599 354.705719,52.518551 
	C354.594574,81.646332 354.685425,110.774933 354.550751,139.902512 
	C354.535858,143.125397 353.435822,146.343262 352.400543,148.788132 
M191.471695,46.545113 
	C191.130325,48.449825 190.498199,50.353859 190.493713,52.259361 
	C190.458908,67.084656 190.579208,81.910233 190.586853,96.735741 
	C190.605225,132.385193 190.575684,168.034668 190.597382,203.684097 
	C190.601227,210.003342 191.204056,210.574097 197.436401,210.611038 
	C204.099625,210.650558 210.763290,210.637070 217.426682,210.617020 
	C224.481644,210.595795 224.565491,210.518906 224.567764,203.225845 
	C224.577774,171.074692 224.552902,138.923538 224.580460,106.772408 
	C224.596161,88.449104 224.743866,70.125595 224.656006,51.803024 
	C224.647690,50.067463 223.377930,48.337944 221.847733,46.278294 
	C211.951141,46.316105 202.054535,46.353912 191.471695,46.545113 
M163.054092,46.170662 
	C140.377090,46.212498 117.700081,46.254330 94.115868,46.132618 
	C91.029076,46.181187 87.942291,46.229755 83.943260,46.157143 
	C73.846352,46.157143 63.749443,46.157143 53.349529,46.157143 
	C53.244110,48.249687 53.091755,49.867252 53.091400,51.484856 
	C53.080070,103.381653 53.080853,155.278458 53.096279,207.175262 
	C53.096771,208.830872 53.270302,210.486404 53.507160,212.821533 
	C55.089516,213.130508 56.668510,213.684555 58.254807,213.706329 
	C65.413605,213.804550 72.574570,213.774948 79.734566,213.746948 
	C85.995804,213.722458 86.293457,213.443863 86.300087,207.322449 
	C86.320816,188.173309 86.303230,169.024109 86.312012,149.874939 
	C86.315720,141.786346 86.389626,141.758209 94.297729,141.768280 
	C113.113808,141.792221 131.930664,141.693512 150.745483,141.850906 
	C155.024384,141.886703 156.842911,140.486771 156.601807,136.088196 
	C156.347031,131.439819 156.564667,126.766449 156.543564,122.104149 
	C156.513809,115.533714 156.326126,115.315491 149.839767,115.315155 
	C130.690720,115.314163 111.540726,115.251999 92.393341,115.440834 
	C87.894928,115.485199 86.119118,114.021393 86.240128,109.404190 
	C86.484329,100.085808 86.302513,90.756462 86.311943,81.431656 
	C86.319885,73.588776 86.329628,73.584976 93.998077,73.584579 
	C116.144508,73.583435 138.291428,73.509735 160.436951,73.653496 
	C164.637100,73.680756 166.571106,72.505516 166.353485,68.001541 
	C166.072510,62.187027 166.428467,56.342407 166.174133,50.525444 
	C166.111816,49.100868 164.743027,47.733421 163.054092,46.170662 
M544.521362,110.965843 
	C557.173279,92.786400 554.776367,57.614956 523.498657,49.838161 
	C513.549805,47.364517 503.214935,45.708382 492.987091,45.257660 
	C476.022034,44.510036 458.999390,45.151642 442.003815,44.958817 
	C437.538574,44.908157 435.818268,46.260452 435.828918,50.927994 
	C435.947937,103.087364 435.894653,155.247116 435.915314,207.406754 
	C435.917694,213.407104 436.369751,213.812790 442.598450,213.823837 
	C458.262939,213.851593 473.930908,214.028168 489.590729,213.756348 
	C498.057526,213.609360 506.627045,213.355423 514.947449,211.949631 
	C538.510254,207.968536 557.865967,191.706024 556.192627,161.797516 
	C555.258484,145.101059 547.274170,133.409531 531.462646,127.970917 
	C529.187805,127.188469 526.912109,126.408630 525.264160,125.842941 
	C531.696350,120.951996 537.887756,116.244087 544.521362,110.965843 
M1249.980225,209.131470 
	C1249.813232,212.551468 1251.519165,213.904327 1254.847412,213.848160 
	C1260.512085,213.752563 1266.185059,213.678589 1271.844360,213.880768 
	C1275.679932,214.017792 1277.163818,212.642090 1277.144531,208.689667 
	C1277.007935,180.524902 1277.329102,152.354523 1276.868286,124.196335 
	C1276.674927,112.375969 1272.588501,101.664467 1263.130249,93.669708 
	C1255.904663,87.562126 1247.170654,85.439102 1238.139038,84.619026 
	C1221.013916,83.064056 1205.625610,86.616959 1194.341797,100.974968 
	C1193.824463,101.633194 1192.873047,101.950394 1191.426514,102.869492 
	C1191.799683,97.126846 1192.344360,92.195709 1192.399048,87.259140 
	C1192.569214,71.933670 1192.505493,56.605721 1192.637085,41.279629 
	C1192.679565,36.343567 1190.546875,34.455868 1185.602661,34.898842 
	C1181.469360,35.269176 1177.276489,34.968380 1173.109985,34.975540 
	C1165.151611,34.989223 1165.135376,34.992405 1165.134644,43.093216 
	C1165.129639,97.257698 1165.131592,151.422180 1165.133667,205.586670 
	C1165.133667,206.919754 1165.184570,208.253128 1165.169556,209.585876 
	C1165.136475,212.501266 1166.581665,213.835007 1169.471558,213.813736 
	C1173.804199,213.781860 1178.137451,213.831589 1182.470459,213.832382 
	C1192.663818,213.834259 1192.710327,213.831024 1192.746704,203.689590 
	C1192.817749,183.857498 1192.747192,164.024399 1192.933472,144.193588 
	C1192.975464,139.726242 1193.485474,135.196060 1194.379028,130.817017 
	C1196.708496,119.401741 1202.496216,110.587204 1214.553467,107.850288 
	C1236.148926,102.948242 1250.317627,110.590630 1250.021729,135.211334 
	C1249.729492,159.540146 1249.962402,183.875259 1249.980225,209.131470 
M995.978699,118.478653 
	C1005.280945,108.553131 1014.583252,98.627609 1023.885559,88.702087 
	C1023.527832,88.208420 1023.170105,87.714752 1022.812317,87.221085 
	C1013.858704,87.221085 1004.902405,87.111656 995.954346,87.334175 
	C994.545410,87.369217 992.890137,88.644218 991.827881,89.790062 
	C977.566650,105.174103 963.379028,120.626534 949.203735,136.090088 
	C946.615784,138.913193 944.164612,141.861679 941.650330,144.752289 
	C941.188721,144.542496 940.727112,144.332718 940.265503,144.122925 
	C940.265503,140.377502 940.236877,136.631805 940.269958,132.886688 
	C940.545288,101.737144 940.819763,70.587585 941.133667,39.438431 
	C941.165649,36.265045 939.773071,34.908562 936.615112,34.967743 
	C931.783813,35.058285 926.949280,34.969810 922.116150,34.975925 
	C914.083252,34.986092 914.064392,34.992302 914.063538,43.023911 
	C914.057739,97.355789 914.060486,151.687668 914.061584,206.019547 
	C914.061584,207.019470 914.119202,208.021347 914.074890,209.018967 
	C913.925964,212.364365 915.443726,213.900223 918.846741,213.843475 
	C924.511597,213.749008 930.182373,213.708374 935.844604,213.863968 
	C939.699890,213.969910 941.237671,212.360229 941.171387,208.519745 
	C941.033508,200.522430 941.802185,192.451355 940.974426,184.538605 
	C939.910889,174.371292 942.901611,167.014328 951.726074,161.527237 
	C955.299866,159.305023 956.898560,159.360214 959.299988,162.723511 
	C968.012512,174.925751 977.836121,186.424927 985.602173,199.186325 
	C992.796387,211.008026 1001.704041,216.418228 1015.367310,213.898148 
	C1017.785400,213.452148 1020.358765,213.905472 1022.854065,213.796844 
	C1024.093262,213.742905 1025.317871,213.356216 1027.579346,212.922409 
	C1024.222290,208.231018 1021.439087,204.168991 1018.481628,200.238052 
	C1005.059753,182.397949 991.689941,164.516815 978.060974,146.835724 
	C974.835938,142.651810 975.154175,139.927795 978.949341,136.347656 
	C984.754700,130.871231 989.999084,124.800117 995.978699,118.478653 
M660.482056,195.989792 
	C671.184692,208.962219 685.195618,215.532425 701.740540,216.517776 
	C732.037170,218.322113 756.554016,204.501617 764.285095,172.689392 
	C767.309875,160.242722 767.706726,147.717300 765.685059,135.031891 
	C761.565308,109.181992 744.765015,87.151733 713.411194,84.525307 
	C695.938232,83.061646 679.430176,86.105629 665.847412,98.241768 
	C654.782715,108.128006 649.495605,121.053337 647.427856,135.500198 
	C644.347473,157.022476 646.977234,177.329376 660.482056,195.989792 
M1402.515991,95.978127 
	C1396.057007,92.705559 1389.926270,88.132355 1383.077637,86.403381 
	C1362.230957,81.140572 1342.114014,85.335182 1322.607910,93.403992 
	C1319.911743,94.519302 1319.063354,96.115425 1320.411011,98.857277 
	C1322.100464,102.294579 1323.816650,105.740082 1325.172852,109.314278 
	C1326.755249,113.484932 1328.845825,114.439552 1333.141968,112.451584 
	C1343.190308,107.801910 1353.757568,104.739288 1364.977661,105.039001 
	C1378.185791,105.391838 1385.585938,112.443405 1386.883911,125.589783 
	C1387.014526,126.913544 1387.020752,128.251923 1387.038574,129.584137 
	C1387.134888,136.794373 1387.073608,136.456009 1379.962036,137.006393 
	C1365.562500,138.120789 1350.925049,138.384735 1336.880005,141.344543 
	C1314.718384,146.014755 1304.809570,159.971970 1306.089722,181.941528 
	C1306.801880,194.161987 1311.402222,204.508850 1322.494263,211.162125 
	C1336.493530,219.559158 1367.948242,219.819473 1382.361450,203.113617 
	C1384.037476,201.171051 1386.099976,199.561874 1388.559570,197.258316 
	C1389.519165,199.383743 1390.181396,200.653351 1390.679443,201.984406 
	C1395.259033,214.221100 1395.248901,214.078278 1408.409058,213.915726 
	C1412.654175,213.863281 1413.835327,212.168961 1413.821045,208.219513 
	C1413.720703,180.560226 1413.893799,152.899475 1413.695679,125.241234 
	C1413.618652,114.492271 1410.958496,104.438988 1402.515991,95.978127 
M1544.326538,141.013321 
	C1544.747314,138.213959 1545.089355,135.400101 1545.601685,132.617584 
	C1548.645142,116.086098 1556.374756,108.080200 1573.144897,106.646828 
	C1591.196289,105.103951 1599.152588,112.600716 1601.114502,127.825562 
	C1601.538574,131.116531 1601.778076,134.454834 1601.786255,137.772110 
	C1601.844238,161.090195 1601.896851,184.408966 1601.753174,207.726303 
	C1601.725586,212.213150 1603.203247,214.118103 1607.814453,213.890839 
	C1613.131592,213.628784 1618.474243,213.718079 1623.800171,213.860748 
	C1627.355225,213.955978 1628.951172,212.621353 1628.937866,208.925476 
	C1628.836426,180.777908 1629.260254,152.620010 1628.604980,124.486664 
	C1628.307129,111.696487 1624.091675,99.784676 1612.680054,92.077225 
	C1594.307983,79.668877 1560.736694,81.598007 1546.040405,99.552788 
	C1545.160522,100.627647 1544.003906,101.476036 1542.128662,103.216148 
	C1541.154785,99.168312 1540.262573,96.183556 1539.745117,93.135193 
	C1539.021118,88.870613 1537.050293,86.578651 1532.371948,87.042336 
	C1529.403076,87.336594 1526.380981,87.069092 1523.383423,87.102615 
	C1517.388062,87.169640 1516.971924,87.562004 1516.964844,93.774536 
	C1516.940186,115.760277 1516.952881,137.746048 1516.953735,159.731812 
	C1516.954224,175.888000 1517.028687,192.044724 1516.910278,208.200027 
	C1516.881104,212.189651 1518.231323,214.054123 1522.410278,213.872910 
	C1527.064941,213.671066 1531.735474,213.840988 1536.399048,213.832047 
	C1543.910889,213.817627 1544.004761,213.728729 1544.028442,206.383499 
	C1544.097534,184.898575 1544.159058,163.413635 1544.326538,141.013321 
M856.875244,107.434921 
	C862.836243,108.951561 868.852112,110.285782 874.736145,112.058044 
	C877.910583,113.014198 879.768066,112.545799 880.896790,109.271965 
	C882.362122,105.021645 883.888428,100.770935 885.748840,96.684418 
	C887.510498,92.814758 886.340515,91.001183 882.492859,89.650696 
	C864.855652,83.460243 847.013977,82.067398 828.964600,87.347092 
	C815.188477,91.376808 804.714050,99.802483 798.279297,112.710640 
	C788.709290,131.908279 788.300659,152.177902 792.294861,172.733185 
	C794.258179,182.837006 798.182068,192.229721 805.390991,199.847366 
	C822.180969,217.589294 859.933044,222.777161 881.246277,210.313171 
	C882.467957,209.598724 884.209106,208.338791 884.251526,207.274628 
	C884.524475,200.428589 884.391052,193.566345 884.391052,185.885956 
	C881.788879,186.826172 880.300781,187.494553 878.744629,187.903824 
	C871.368469,189.843781 864.071716,192.386124 856.566895,193.478714 
	C835.716858,196.514175 821.058533,184.870911 819.148804,163.782974 
	C818.404053,155.558716 818.473206,147.178497 819.057190,138.932037 
	C820.607239,117.043388 834.148254,105.657333 856.875244,107.434921 
M1117.615967,215.182220 
	C1119.567505,214.769897 1121.556152,214.484039 1123.464600,213.924637 
	C1135.501099,210.396378 1135.924316,209.850891 1135.868652,197.425537 
	C1135.852295,193.767792 1135.582520,190.111160 1135.397339,185.702789 
	C1131.634033,187.204468 1129.112061,188.665085 1126.406250,189.206848 
	C1117.650879,190.959824 1108.858643,193.420166 1100.023926,193.679871 
	C1086.218750,194.085693 1076.213013,186.039581 1072.248535,172.875534 
	C1067.972046,158.675415 1067.843872,144.272415 1071.840576,130.013550 
	C1076.293701,114.125999 1086.253784,106.461380 1102.645386,107.249840 
	C1110.329346,107.619446 1117.990601,109.901962 1125.495850,111.932259 
	C1129.198730,112.933945 1131.076294,112.462502 1132.277588,108.771507 
	C1133.564087,104.818832 1135.027710,100.899483 1136.753418,97.120567 
	C1138.718628,92.817238 1137.228394,90.860939 1133.005981,89.431946 
	C1118.206543,84.423340 1103.217041,82.751953 1087.748657,85.570618 
	C1066.260986,89.486176 1051.935425,101.584503 1045.379395,122.474899 
	C1039.534912,141.098053 1039.460205,159.962372 1044.917480,178.604980 
	C1050.997314,199.374527 1064.880249,212.386139 1086.502197,215.298691 
	C1096.411011,216.633438 1106.665527,215.400955 1117.615967,215.182220 
M615.819397,168.500000 
	C615.819641,138.200226 615.820068,107.900467 615.820129,77.600700 
	C615.820129,65.780479 615.836060,53.960220 615.812744,42.140041 
	C615.798950,35.137589 615.627930,34.991886 608.436584,34.970158 
	C603.941650,34.956577 599.446472,34.953861 594.951538,34.970734 
	C588.161926,34.996227 588.082886,35.055180 588.081177,42.062927 
	C588.070679,85.015289 588.075073,127.967651 588.075195,170.920013 
	C588.075195,183.073196 588.049500,195.226486 588.090820,207.379532 
	C588.111389,213.426208 588.528320,213.793655 594.714417,213.836060 
	C599.042725,213.865723 603.371399,213.845840 607.699951,213.842285 
	C615.798279,213.835617 615.810364,213.833878 615.817017,205.959564 
	C615.827209,193.806381 615.818970,181.653183 615.819397,168.500000 
M1478.833008,177.500000 
	C1478.833252,174.835907 1478.833618,172.171814 1478.833618,169.507721 
	C1478.833008,144.198776 1478.845093,118.889824 1478.822632,93.580894 
	C1478.817017,87.389999 1478.530640,87.136635 1472.300659,87.093872 
	C1467.472046,87.060730 1462.643188,87.063370 1457.814575,87.091896 
	C1451.467407,87.129402 1451.120483,87.456406 1451.116333,93.979103 
	C1451.097778,123.617195 1451.106812,153.255310 1451.106934,182.893417 
	C1451.106934,191.218719 1451.285034,199.549118 1451.043091,207.867340 
	C1450.908691,212.484558 1452.734009,214.123062 1457.226685,213.899368 
	C1462.375610,213.643021 1467.562866,213.589264 1472.704224,213.911850 
	C1477.642090,214.221649 1479.030273,212.113327 1478.907837,207.470047 
	C1478.653687,197.819397 1478.832031,188.157364 1478.833008,177.500000 
M1450.019409,56.061172 
	C1451.858887,63.763721 1455.463379,67.350311 1462.057861,68.039795 
	C1470.419312,68.914024 1475.747437,66.577164 1478.629639,60.771645 
	C1484.299316,49.351192 1477.092651,37.768322 1464.434448,37.956997 
	C1454.429932,38.106113 1449.894165,43.507923 1450.019409,56.061172 
z"/>
<path fill="#182A53" opacity="1.000000" stroke="none" 
	d="
M544.300293,111.251007 
	C537.887756,116.244087 531.696350,120.951996 525.264160,125.842941 
	C526.912109,126.408630 529.187805,127.188469 531.462646,127.970917 
	C547.274170,133.409531 555.258484,145.101059 556.192627,161.797516 
	C557.865967,191.706024 538.510254,207.968536 514.947449,211.949631 
	C506.627045,213.355423 498.057526,213.609360 489.590729,213.756348 
	C473.930908,214.028168 458.262939,213.851593 442.598450,213.823837 
	C436.369751,213.812790 435.917694,213.407104 435.915314,207.406754 
	C435.894653,155.247116 435.947937,103.087364 435.828918,50.927994 
	C435.818268,46.260452 437.538574,44.908157 442.003815,44.958817 
	C458.999390,45.151642 476.022034,44.510036 492.987091,45.257660 
	C503.214935,45.708382 513.549805,47.364517 523.498657,49.838161 
	C554.776367,57.614956 557.173279,92.786400 544.300293,111.251007 
M497.070923,137.254257 
	C487.579987,137.160507 478.086487,137.167664 468.599304,136.926743 
	C464.404968,136.820221 463.072479,138.712372 463.103973,142.653900 
	C463.215790,156.643768 463.218231,170.635590 463.106537,184.625443 
	C463.074127,188.686722 464.698669,190.284225 468.761597,190.218201 
	C478.918976,190.053146 489.101898,190.524200 499.231171,189.960373 
	C504.259705,189.680466 509.491791,188.363693 514.110168,186.330917 
	C525.730713,181.216141 527.864136,170.980835 527.017700,159.622543 
	C526.280762,149.732117 520.933044,143.188980 511.632965,140.181808 
	C507.237793,138.760635 502.540405,138.274170 497.070923,137.254257 
M478.507935,68.058792 
	C474.844543,68.069878 471.180969,68.108246 467.517822,68.083290 
	C464.656708,68.063805 463.177277,69.369881 463.179413,72.289314 
	C463.188843,85.111122 463.082062,97.934959 463.333923,110.751831 
	C463.361145,112.136887 465.465027,114.685669 466.561340,114.661804 
	C479.834076,114.372864 493.235321,114.676926 506.324371,112.840118 
	C518.074158,111.191269 523.121643,102.734467 522.855713,89.756065 
	C522.638000,79.130959 516.713989,71.909927 505.302155,70.077057 
	C496.813995,68.713768 488.111755,68.683197 478.507935,68.058792 
z"/>
<path fill="#182A53" opacity="1.000000" stroke="none" 
	d="
M1249.972656,208.669540 
	C1249.962402,183.875259 1249.729492,159.540146 1250.021729,135.211334 
	C1250.317627,110.590630 1236.148926,102.948242 1214.553467,107.850288 
	C1202.496216,110.587204 1196.708496,119.401741 1194.379028,130.817017 
	C1193.485474,135.196060 1192.975464,139.726242 1192.933472,144.193588 
	C1192.747192,164.024399 1192.817749,183.857498 1192.746704,203.689590 
	C1192.710327,213.831024 1192.663818,213.834259 1182.470459,213.832382 
	C1178.137451,213.831589 1173.804199,213.781860 1169.471558,213.813736 
	C1166.581665,213.835007 1165.136475,212.501266 1165.169556,209.585876 
	C1165.184570,208.253128 1165.133667,206.919754 1165.133667,205.586670 
	C1165.131592,151.422180 1165.129639,97.257698 1165.134644,43.093216 
	C1165.135376,34.992405 1165.151611,34.989223 1173.109985,34.975540 
	C1177.276489,34.968380 1181.469360,35.269176 1185.602661,34.898842 
	C1190.546875,34.455868 1192.679565,36.343567 1192.637085,41.279629 
	C1192.505493,56.605721 1192.569214,71.933670 1192.399048,87.259140 
	C1192.344360,92.195709 1191.799683,97.126846 1191.426514,102.869492 
	C1192.873047,101.950394 1193.824463,101.633194 1194.341797,100.974968 
	C1205.625610,86.616959 1221.013916,83.064056 1238.139038,84.619026 
	C1247.170654,85.439102 1255.904663,87.562126 1263.130249,93.669708 
	C1272.588501,101.664467 1276.674927,112.375969 1276.868286,124.196335 
	C1277.329102,152.354523 1277.007935,180.524902 1277.144531,208.689667 
	C1277.163818,212.642090 1275.679932,214.017792 1271.844360,213.880768 
	C1266.185059,213.678589 1260.512085,213.752563 1254.847412,213.848160 
	C1251.519165,213.904327 1249.813232,212.551468 1249.972656,208.669540 
z"/>
<path fill="#182A53" opacity="1.000000" stroke="none" 
	d="
M995.730103,118.730057 
	C989.999084,124.800117 984.754700,130.871231 978.949341,136.347656 
	C975.154175,139.927795 974.835938,142.651810 978.060974,146.835724 
	C991.689941,164.516815 1005.059753,182.397949 1018.481628,200.238052 
	C1021.439087,204.168991 1024.222290,208.231018 1027.579346,212.922409 
	C1025.317871,213.356216 1024.093262,213.742905 1022.854065,213.796844 
	C1020.358765,213.905472 1017.785400,213.452148 1015.367310,213.898148 
	C1001.704041,216.418228 992.796387,211.008026 985.602173,199.186325 
	C977.836121,186.424927 968.012512,174.925751 959.299988,162.723511 
	C956.898560,159.360214 955.299866,159.305023 951.726074,161.527237 
	C942.901611,167.014328 939.910889,174.371292 940.974426,184.538605 
	C941.802185,192.451355 941.033508,200.522430 941.171387,208.519745 
	C941.237671,212.360229 939.699890,213.969910 935.844604,213.863968 
	C930.182373,213.708374 924.511597,213.749008 918.846741,213.843475 
	C915.443726,213.900223 913.925964,212.364365 914.074890,209.018967 
	C914.119202,208.021347 914.061584,207.019470 914.061584,206.019547 
	C914.060486,151.687668 914.057739,97.355789 914.063538,43.023911 
	C914.064392,34.992302 914.083252,34.986092 922.116150,34.975925 
	C926.949280,34.969810 931.783813,35.058285 936.615112,34.967743 
	C939.773071,34.908562 941.165649,36.265045 941.133667,39.438431 
	C940.819763,70.587585 940.545288,101.737144 940.269958,132.886688 
	C940.236877,136.631805 940.265503,140.377502 940.265503,144.122925 
	C940.727112,144.332718 941.188721,144.542496 941.650330,144.752289 
	C944.164612,141.861679 946.615784,138.913193 949.203735,136.090088 
	C963.379028,120.626534 977.566650,105.174103 991.827881,89.790062 
	C992.890137,88.644218 994.545410,87.369217 995.954346,87.334175 
	C1004.902405,87.111656 1013.858704,87.221085 1022.812317,87.221085 
	C1023.170105,87.714752 1023.527832,88.208420 1023.885559,88.702087 
	C1014.583252,98.627609 1005.280945,108.553131 995.730103,118.730057 
z"/>
<path fill="#182A53" opacity="1.000000" stroke="none" 
	d="
M660.241394,195.728119 
	C646.977234,177.329376 644.347473,157.022476 647.427856,135.500198 
	C649.495605,121.053337 654.782715,108.128006 665.847412,98.241768 
	C679.430176,86.105629 695.938232,83.061646 713.411194,84.525307 
	C744.765015,87.151733 761.565308,109.181992 765.685059,135.031891 
	C767.706726,147.717300 767.309875,160.242722 764.285095,172.689392 
	C756.554016,204.501617 732.037170,218.322113 701.740540,216.517776 
	C685.195618,215.532425 671.184692,208.962219 660.241394,195.728119 
M674.915649,160.559174 
	C675.685181,164.641235 676.095520,168.831696 677.288574,172.785980 
	C681.665466,187.292480 691.289734,194.192749 706.644775,194.206985 
	C722.066223,194.221283 731.693726,187.481079 735.901306,172.769394 
	C740.450378,156.863617 740.466858,140.796921 734.844666,125.113091 
	C730.354614,112.587372 719.421082,105.857704 705.469849,106.199242 
	C691.859802,106.532425 681.693054,113.820389 677.705017,126.609856 
	C674.349182,137.372101 673.033447,148.405136 674.915649,160.559174 
z"/>
<path fill="#182A53" opacity="1.000000" stroke="none" 
	d="
M1402.768555,96.228371 
	C1410.958496,104.438988 1413.618652,114.492271 1413.695679,125.241234 
	C1413.893799,152.899475 1413.720703,180.560226 1413.821045,208.219513 
	C1413.835327,212.168961 1412.654175,213.863281 1408.409058,213.915726 
	C1395.248901,214.078278 1395.259033,214.221100 1390.679443,201.984406 
	C1390.181396,200.653351 1389.519165,199.383743 1388.559570,197.258316 
	C1386.099976,199.561874 1384.037476,201.171051 1382.361450,203.113617 
	C1367.948242,219.819473 1336.493530,219.559158 1322.494263,211.162125 
	C1311.402222,204.508850 1306.801880,194.161987 1306.089722,181.941528 
	C1304.809570,159.971970 1314.718384,146.014755 1336.880005,141.344543 
	C1350.925049,138.384735 1365.562500,138.120789 1379.962036,137.006393 
	C1387.073608,136.456009 1387.134888,136.794373 1387.038574,129.584137 
	C1387.020752,128.251923 1387.014526,126.913544 1386.883911,125.589783 
	C1385.585938,112.443405 1378.185791,105.391838 1364.977661,105.039001 
	C1353.757568,104.739288 1343.190308,107.801910 1333.141968,112.451584 
	C1328.845825,114.439552 1326.755249,113.484932 1325.172852,109.314278 
	C1323.816650,105.740082 1322.100464,102.294579 1320.411011,98.857277 
	C1319.063354,96.115425 1319.911743,94.519302 1322.607910,93.403992 
	C1342.114014,85.335182 1362.230957,81.140572 1383.077637,86.403381 
	C1389.926270,88.132355 1396.057007,92.705559 1402.768555,96.228371 
M1386.890869,167.122787 
	C1386.907715,164.462692 1386.822144,161.797058 1386.965332,159.143784 
	C1387.176514,155.231308 1385.336914,153.712234 1381.559937,153.964783 
	C1374.106934,154.463089 1366.558228,154.315063 1359.220947,155.499481 
	C1353.596924,156.407333 1347.827271,158.205399 1342.854614,160.939285 
	C1335.218384,165.137589 1332.329712,174.614395 1334.724976,183.661041 
	C1336.709839,191.157776 1342.811279,195.620621 1352.093140,195.933273 
	C1369.006714,196.502991 1384.719360,188.952499 1386.890869,167.122787 
z"/>
<path fill="#182A53" opacity="1.000000" stroke="none" 
	d="
M1544.275024,141.471008 
	C1544.159058,163.413635 1544.097534,184.898575 1544.028442,206.383499 
	C1544.004761,213.728729 1543.910889,213.817627 1536.399048,213.832047 
	C1531.735474,213.840988 1527.064941,213.671066 1522.410278,213.872910 
	C1518.231323,214.054123 1516.881104,212.189651 1516.910278,208.200027 
	C1517.028687,192.044724 1516.954224,175.888000 1516.953735,159.731812 
	C1516.952881,137.746048 1516.940186,115.760277 1516.964844,93.774536 
	C1516.971924,87.562004 1517.388062,87.169640 1523.383423,87.102615 
	C1526.380981,87.069092 1529.403076,87.336594 1532.371948,87.042336 
	C1537.050293,86.578651 1539.021118,88.870613 1539.745117,93.135193 
	C1540.262573,96.183556 1541.154785,99.168312 1542.128662,103.216148 
	C1544.003906,101.476036 1545.160522,100.627647 1546.040405,99.552788 
	C1560.736694,81.598007 1594.307983,79.668877 1612.680054,92.077225 
	C1624.091675,99.784676 1628.307129,111.696487 1628.604980,124.486664 
	C1629.260254,152.620010 1628.836426,180.777908 1628.937866,208.925476 
	C1628.951172,212.621353 1627.355225,213.955978 1623.800171,213.860748 
	C1618.474243,213.718079 1613.131592,213.628784 1607.814453,213.890839 
	C1603.203247,214.118103 1601.725586,212.213150 1601.753174,207.726303 
	C1601.896851,184.408966 1601.844238,161.090195 1601.786255,137.772110 
	C1601.778076,134.454834 1601.538574,131.116531 1601.114502,127.825562 
	C1599.152588,112.600716 1591.196289,105.103951 1573.144897,106.646828 
	C1556.374756,108.080200 1548.645142,116.086098 1545.601685,132.617584 
	C1545.089355,135.400101 1544.747314,138.213959 1544.275024,141.471008 
z"/>
<path fill="#182A53" opacity="1.000000" stroke="none" 
	d="
M856.433350,107.367523 
	C834.148254,105.657333 820.607239,117.043388 819.057190,138.932037 
	C818.473206,147.178497 818.404053,155.558716 819.148804,163.782974 
	C821.058533,184.870911 835.716858,196.514175 856.566895,193.478714 
	C864.071716,192.386124 871.368469,189.843781 878.744629,187.903824 
	C880.300781,187.494553 881.788879,186.826172 884.391052,185.885956 
	C884.391052,193.566345 884.524475,200.428589 884.251526,207.274628 
	C884.209106,208.338791 882.467957,209.598724 881.246277,210.313171 
	C859.933044,222.777161 822.180969,217.589294 805.390991,199.847366 
	C798.182068,192.229721 794.258179,182.837006 792.294861,172.733185 
	C788.300659,152.177902 788.709290,131.908279 798.279297,112.710640 
	C804.714050,99.802483 815.188477,91.376808 828.964600,87.347092 
	C847.013977,82.067398 864.855652,83.460243 882.492859,89.650696 
	C886.340515,91.001183 887.510498,92.814758 885.748840,96.684418 
	C883.888428,100.770935 882.362122,105.021645 880.896790,109.271965 
	C879.768066,112.545799 877.910583,113.014198 874.736145,112.058044 
	C868.852112,110.285782 862.836243,108.951561 856.433350,107.367523 
z"/>
<path fill="#182A53" opacity="1.000000" stroke="none" 
	d="
M1117.189697,215.257446 
	C1106.665527,215.400955 1096.411011,216.633438 1086.502197,215.298691 
	C1064.880249,212.386139 1050.997314,199.374527 1044.917480,178.604980 
	C1039.460205,159.962372 1039.534912,141.098053 1045.379395,122.474899 
	C1051.935425,101.584503 1066.260986,89.486176 1087.748657,85.570618 
	C1103.217041,82.751953 1118.206543,84.423340 1133.005981,89.431946 
	C1137.228394,90.860939 1138.718628,92.817238 1136.753418,97.120567 
	C1135.027710,100.899483 1133.564087,104.818832 1132.277588,108.771507 
	C1131.076294,112.462502 1129.198730,112.933945 1125.495850,111.932259 
	C1117.990601,109.901962 1110.329346,107.619446 1102.645386,107.249840 
	C1086.253784,106.461380 1076.293701,114.125999 1071.840576,130.013550 
	C1067.843872,144.272415 1067.972046,158.675415 1072.248535,172.875534 
	C1076.213013,186.039581 1086.218750,194.085693 1100.023926,193.679871 
	C1108.858643,193.420166 1117.650879,190.959824 1126.406250,189.206848 
	C1129.112061,188.665085 1131.634033,187.204468 1135.397339,185.702789 
	C1135.582520,190.111160 1135.852295,193.767792 1135.868652,197.425537 
	C1135.924316,209.850891 1135.501099,210.396378 1123.464600,213.924637 
	C1121.556152,214.484039 1119.567505,214.769897 1117.189697,215.257446 
z"/>
<path fill="#04ACC4" opacity="1.000000" stroke="none" 
	d="
M53.363159,212.141998 
	C53.270302,210.486404 53.096771,208.830872 53.096279,207.175262 
	C53.080853,155.278458 53.080070,103.381653 53.091400,51.484856 
	C53.091755,49.867252 53.244110,48.249687 53.349529,46.157143 
	C63.749443,46.157143 73.846352,46.157143 84.404984,46.402363 
	C84.866714,46.647583 85.027557,46.980156 85.040527,47.332329 
	C85.321823,48.802139 85.590141,49.919773 85.835884,51.500542 
	C85.818314,56.628021 85.823326,61.292366 85.662888,66.301399 
	C85.417717,68.458351 85.337997,70.270607 85.169571,72.539734 
	C84.974289,75.651558 84.776711,78.306465 84.774956,80.961502 
	C84.753578,113.371101 84.761505,145.780716 84.760567,178.190338 
	C84.760292,187.668213 84.630150,197.148499 84.812492,206.622818 
	C84.890846,210.693985 83.427040,212.264755 79.297615,212.170288 
	C70.657104,211.972641 62.008461,212.130264 53.363159,212.141998 
z"/>
<path fill="#182952" opacity="1.000000" stroke="none" 
	d="
M615.818970,169.000000 
	C615.818970,181.653183 615.827209,193.806381 615.817017,205.959564 
	C615.810364,213.833878 615.798279,213.835617 607.699951,213.842285 
	C603.371399,213.845840 599.042725,213.865723 594.714417,213.836060 
	C588.528320,213.793655 588.111389,213.426208 588.090820,207.379532 
	C588.049500,195.226486 588.075195,183.073196 588.075195,170.920013 
	C588.075073,127.967651 588.070679,85.015289 588.081177,42.062927 
	C588.082886,35.055180 588.161926,34.996227 594.951538,34.970734 
	C599.446472,34.953861 603.941650,34.956577 608.436584,34.970158 
	C615.627930,34.991886 615.798950,35.137589 615.812744,42.140041 
	C615.836060,53.960220 615.820129,65.780479 615.820129,77.600700 
	C615.820068,107.900467 615.819641,138.200226 615.818970,169.000000 
z"/>
<path fill="#04ACC5" opacity="1.000000" stroke="none" 
	d="
M256.999023,46.136051 
	C266.649780,46.131149 276.300568,46.126244 286.573395,46.455193 
	C289.337219,49.828449 291.525269,52.836514 293.608856,55.915264 
	C296.161163,59.686577 298.618622,63.521938 301.130676,67.320625 
	C303.731201,71.253120 306.513092,75.077911 308.896790,79.137039 
	C310.366821,81.640388 311.198029,84.512939 312.393616,87.185043 
	C313.689789,90.081932 315.003632,92.975784 316.455444,95.795975 
	C317.117859,97.082748 318.216064,98.137550 318.969299,99.386414 
	C323.409515,106.748535 327.780701,114.152298 332.225311,121.511719 
	C336.335083,128.316757 340.540100,135.064316 344.641205,141.874496 
	C347.224762,146.164719 349.663269,150.542480 352.267548,154.819641 
	C352.504181,155.208282 353.477478,155.148392 354.325470,155.631927 
	C355.386780,157.924973 356.002014,160.025543 357.115997,161.815765 
	C361.637604,169.082260 366.370331,176.217133 370.914459,183.469940 
	C375.539459,190.851883 380.102539,198.275177 384.526337,205.778458 
	C385.368225,207.206406 386.023407,209.253403 385.626221,210.702881 
	C385.404907,211.510666 382.844574,212.034897 381.324890,212.067932 
	C374.663177,212.212723 367.995270,212.051392 361.332214,212.160553 
	C356.977905,212.231873 354.823059,209.799164 353.228149,206.130035 
	C350.892944,200.757889 348.677887,195.265930 345.674225,190.268204 
	C341.423279,183.195160 336.400452,176.590866 331.901672,169.660172 
	C329.171783,165.454605 326.888214,160.962128 324.261658,156.686066 
	C320.015778,149.773895 315.642853,142.939911 311.343109,136.060684 
	C309.272217,132.747406 307.170288,129.449936 305.218262,126.066910 
	C302.629242,121.579948 300.325897,116.922295 297.613861,112.513916 
	C295.237122,108.650505 292.495880,105.008377 289.859558,101.308449 
	C287.444122,97.918465 284.913605,94.610306 282.507080,91.214188 
	C279.851776,87.467056 277.270020,83.667595 274.678650,79.875618 
	C274.028137,78.923721 273.460266,77.915138 272.859772,76.929337 
	C268.277588,69.406738 263.529938,61.977108 259.214233,54.304539 
	C257.873322,51.920609 257.704468,48.877422 256.999023,46.136051 
z"/>
<path fill="#084EA3" opacity="1.000000" stroke="none" 
	d="
M357.096191,46.266834 
	C366.392731,46.226707 375.689301,46.186577 385.467834,46.655846 
	C385.980133,94.069122 386.015167,140.972992 386.017517,187.876877 
	C386.017578,189.278656 385.675018,190.680466 385.434937,192.521271 
	C383.572876,191.606628 382.283569,190.973297 380.951294,189.971710 
	C380.173950,188.406693 379.439514,187.209961 378.720215,185.648560 
	C375.153229,179.984741 371.571045,174.685577 367.742737,169.186554 
	C362.176117,167.700653 357.140442,160.661575 356.794495,153.480835 
	C356.892731,149.030441 356.956177,145.040405 356.962585,141.050278 
	C357.013245,109.455803 357.053070,77.861313 357.096191,46.266834 
z"/>
<path fill="#182952" opacity="1.000000" stroke="none" 
	d="
M1478.832764,178.000000 
	C1478.832031,188.157364 1478.653687,197.819397 1478.907837,207.470047 
	C1479.030273,212.113327 1477.642090,214.221649 1472.704224,213.911850 
	C1467.562866,213.589264 1462.375610,213.643021 1457.226685,213.899368 
	C1452.734009,214.123062 1450.908691,212.484558 1451.043091,207.867340 
	C1451.285034,199.549118 1451.106934,191.218719 1451.106934,182.893417 
	C1451.106812,153.255310 1451.097778,123.617195 1451.116333,93.979103 
	C1451.120483,87.456406 1451.467407,87.129402 1457.814575,87.091896 
	C1462.643188,87.063370 1467.472046,87.060730 1472.300659,87.093872 
	C1478.530640,87.136635 1478.817017,87.389999 1478.822632,93.580894 
	C1478.845093,118.889824 1478.833008,144.198776 1478.833618,169.507721 
	C1478.833618,172.171814 1478.833252,174.835907 1478.832764,178.000000 
z"/>
<path fill="#074A93" opacity="1.000000" stroke="none" 
	d="
M85.828339,65.956711 
	C85.823326,61.292366 85.818314,56.628021 86.032173,51.242996 
	C85.843208,49.341599 85.435379,48.160877 85.027557,46.980156 
	C85.027557,46.980156 84.866714,46.647583 84.861107,46.462952 
	C87.942291,46.229755 91.029076,46.181187 94.568176,46.631847 
	C94.892410,54.030285 94.597450,60.934586 94.807846,67.823456 
	C94.841179,68.914787 97.144249,70.842911 98.412537,70.855026 
	C118.677231,71.048706 138.944382,70.965637 159.210754,71.022621 
	C162.562271,71.032043 164.059341,69.669449 164.009216,66.273483 
	C163.911118,59.630173 163.976944,52.984440 163.974915,46.339706 
	C164.743027,47.733421 166.111816,49.100868 166.174133,50.525444 
	C166.428467,56.342407 166.072510,62.187027 166.353485,68.001541 
	C166.571106,72.505516 164.637100,73.680756 160.436951,73.653496 
	C138.291428,73.509735 116.144508,73.583435 93.998077,73.584579 
	C86.329628,73.584976 86.319885,73.588776 86.311943,81.431656 
	C86.302513,90.756462 86.484329,100.085808 86.240128,109.404190 
	C86.119118,114.021393 87.894928,115.485199 92.393341,115.440834 
	C111.540726,115.251999 130.690720,115.314163 149.839767,115.315155 
	C156.326126,115.315491 156.513809,115.533714 156.543564,122.104149 
	C156.564667,126.766449 156.347031,131.439819 156.601807,136.088196 
	C156.842911,140.486771 155.024384,141.886703 150.745483,141.850906 
	C131.930664,141.693512 113.113808,141.792221 94.297729,141.768280 
	C86.389626,141.758209 86.315720,141.786346 86.312012,149.874939 
	C86.303230,169.024109 86.320816,188.173309 86.300087,207.322449 
	C86.293457,213.443863 85.995804,213.722458 79.734566,213.746948 
	C72.574570,213.774948 65.413605,213.804550 58.254807,213.706329 
	C56.668510,213.684555 55.089516,213.130508 53.435158,212.481766 
	C62.008461,212.130264 70.657104,211.972641 79.297615,212.170288 
	C83.427040,212.264755 84.890846,210.693985 84.812492,206.622818 
	C84.630150,197.148499 84.760292,187.668213 84.760567,178.190338 
	C84.761505,145.780716 84.753578,113.371101 84.774956,80.961502 
	C84.776711,78.306465 84.974289,75.651558 85.444092,72.349907 
	C85.814316,69.787720 85.821327,67.872215 85.828339,65.956711 
z"/>
<path fill="#054C7D" opacity="1.000000" stroke="none" 
	d="
M356.733215,153.941147 
	C357.140442,160.661575 362.176117,167.700653 367.718201,169.512665 
	C368.629303,172.510117 369.100555,175.072556 370.080231,177.423080 
	C370.809326,179.172348 371.983215,180.868408 373.347534,182.185883 
	C374.909149,183.693848 376.900452,184.756882 378.705048,186.013229 
	C379.439514,187.209961 380.173950,188.406693 380.966614,190.341492 
	C383.255585,196.018112 385.486328,200.956650 387.717041,205.895203 
	C388.838440,213.192780 388.309692,213.861618 381.251526,213.881348 
	C374.418274,213.900452 367.582306,213.765839 360.752594,213.921066 
	C355.628448,214.037552 353.312225,211.272507 351.242340,206.909790 
	C348.128510,200.346741 344.177246,194.173050 340.458252,187.907303 
	C336.742462,181.646927 332.828949,175.504150 329.088348,169.258194 
	C326.348083,164.682617 323.919128,159.913422 321.044861,155.426910 
	C316.495941,148.326401 310.802063,141.812469 307.220612,134.276672 
	C302.843048,125.065727 297.387756,116.772675 291.329041,108.695290 
	C289.258362,105.934685 288.186340,102.424988 286.658051,99.257538 
	C286.230133,99.318542 285.802246,99.379547 285.374329,99.440552 
	C285.374329,101.665848 285.374451,103.891136 285.374298,106.116432 
	C285.372192,138.616165 285.376678,171.115891 285.362854,203.615631 
	C285.359772,210.907883 282.747894,213.550812 275.555115,213.592667 
	C270.888672,213.619827 266.221619,213.623993 261.555328,213.582199 
	C255.047134,213.523911 252.253311,210.720978 252.255890,204.078552 
	C252.275711,152.912674 252.335052,101.746780 252.340973,50.580894 
	C252.341293,47.815903 252.400604,45.402874 256.598114,46.028358 
	C257.704468,48.877422 257.873322,51.920609 259.214233,54.304539 
	C263.529938,61.977108 268.277588,69.406738 272.859772,76.929337 
	C273.460266,77.915138 274.028137,78.923721 274.678650,79.875618 
	C277.270020,83.667595 279.851776,87.467056 282.507080,91.214188 
	C284.913605,94.610306 287.444122,97.918465 289.859558,101.308449 
	C292.495880,105.008377 295.237122,108.650505 297.613861,112.513916 
	C300.325897,116.922295 302.629242,121.579948 305.218262,126.066910 
	C307.170288,129.449936 309.272217,132.747406 311.343109,136.060684 
	C315.642853,142.939911 320.015778,149.773895 324.261658,156.686066 
	C326.888214,160.962128 329.171783,165.454605 331.901672,169.660172 
	C336.400452,176.590866 341.423279,183.195160 345.674225,190.268204 
	C348.677887,195.265930 350.892944,200.757889 353.228149,206.130035 
	C354.823059,209.799164 356.977905,212.231873 361.332214,212.160553 
	C367.995270,212.051392 374.663177,212.212723 381.324890,212.067932 
	C382.844574,212.034897 385.404907,211.510666 385.626221,210.702881 
	C386.023407,209.253403 385.368225,207.206406 384.526337,205.778458 
	C380.102539,198.275177 375.539459,190.851883 370.914459,183.469940 
	C366.370331,176.217133 361.637604,169.082260 357.115997,161.815765 
	C356.002014,160.025543 355.386780,157.924973 354.321228,155.440033 
	C354.095398,154.653412 354.095184,154.393829 354.430206,154.101776 
	C355.418335,154.026581 356.075775,153.983871 356.733215,153.941147 
M254.019836,174.500000 
	C254.022949,183.830200 253.955231,193.161133 254.054413,202.490311 
	C254.119232,208.587158 256.573883,210.973785 262.541748,211.059433 
	C266.039886,211.109634 269.539337,211.082870 273.038147,211.071320 
	C281.223938,211.044327 283.028778,209.256531 283.032593,201.056732 
	C283.045013,174.398926 283.039978,147.741119 283.035980,121.083305 
	C283.034851,113.419220 283.408051,105.723885 282.802979,98.106949 
	C282.571655,95.195084 280.468475,92.147781 278.508362,89.740211 
	C276.681763,87.496635 273.333374,86.435646 271.675262,84.122612 
	C267.904755,78.862709 264.802551,73.127319 261.343445,67.638931 
	C259.731445,65.081245 257.921173,62.648529 255.632477,59.336868 
	C254.907227,60.705250 254.470276,61.145664 254.468246,61.588028 
	C254.297134,98.891922 254.159744,136.195969 254.019836,174.500000 
z"/>
<path fill="#084EA3" opacity="1.000000" stroke="none" 
	d="
M163.514496,46.255184 
	C163.976944,52.984440 163.911118,59.630173 164.009216,66.273483 
	C164.059341,69.669449 162.562271,71.032043 159.210754,71.022621 
	C138.944382,70.965637 118.677231,71.048706 98.412537,70.855026 
	C97.144249,70.842911 94.841179,68.914787 94.807846,67.823456 
	C94.597450,60.934586 94.892410,54.030285 95.021790,46.713623 
	C117.700081,46.254330 140.377090,46.212498 163.514496,46.255184 
z"/>
<path fill="#04ACC5" opacity="1.000000" stroke="none" 
	d="
M192.157944,46.391720 
	C202.054535,46.353912 211.951141,46.316105 222.349960,46.861649 
	C222.842499,60.600002 222.832809,73.754997 222.299606,86.753220 
	C211.987488,86.671562 202.198898,86.746681 192.382782,86.365509 
	C192.289490,72.736717 192.223709,59.564220 192.157944,46.391720 
z"/>
<path fill="#05386A" opacity="1.000000" stroke="none" 
	d="
M222.823120,86.909996 
	C222.832809,73.754997 222.842499,60.600002 222.772995,47.025314 
	C223.377930,48.337944 224.647690,50.067463 224.656006,51.803024 
	C224.743866,70.125595 224.596161,88.449104 224.580460,106.772408 
	C224.552902,138.923538 224.577774,171.074692 224.567764,203.225845 
	C224.565491,210.518906 224.481644,210.595795 217.426682,210.617020 
	C210.763290,210.637070 204.099625,210.650558 197.436401,210.611038 
	C191.204056,210.574097 190.601227,210.003342 190.597382,203.684097 
	C190.575684,168.034668 190.605225,132.385193 190.586853,96.735741 
	C190.579208,81.910233 190.458908,67.084656 190.493713,52.259361 
	C190.498199,50.353859 191.130325,48.449825 191.814819,46.468414 
	C192.223709,59.564220 192.289490,72.736717 192.354004,86.726204 
	C193.442780,88.228249 194.521835,89.485825 195.624542,89.506905 
	C203.731293,89.661911 211.845215,89.659027 219.949631,89.438911 
	C220.929626,89.412292 221.866348,87.791786 222.823120,86.909996 
M222.130554,126.500000 
	C222.122757,117.515610 222.082169,108.531075 222.125000,99.546921 
	C222.139984,96.402184 221.106323,95.252930 217.634674,95.502617 
	C211.344788,95.954994 204.940842,96.280495 198.705643,95.580292 
	C193.563705,95.002869 192.808899,96.959015 192.882172,101.247879 
	C193.061234,111.726700 192.937241,122.210678 192.937332,132.692581 
	C192.937531,155.819321 193.021881,178.946594 192.868210,202.072311 
	C192.838394,206.559311 194.263931,208.439301 198.890015,208.203873 
	C204.366287,207.925201 209.867828,208.162949 215.358185,208.135223 
	C221.835571,208.102524 222.116470,207.844299 222.121521,201.372452 
	C222.140778,176.748322 222.130493,152.124146 222.130554,126.500000 
z"/>
<path fill="#182952" opacity="1.000000" stroke="none" 
	d="
M1449.987671,55.630661 
	C1449.894165,43.507923 1454.429932,38.106113 1464.434448,37.956997 
	C1477.092651,37.768322 1484.299316,49.351192 1478.629639,60.771645 
	C1475.747437,66.577164 1470.419312,68.914024 1462.057861,68.039795 
	C1455.463379,67.350311 1451.858887,63.763721 1449.987671,55.630661 
z"/>
<path fill="#063A75" opacity="1.000000" stroke="none" 
	d="
M387.878693,205.531906 
	C385.486328,200.956650 383.255585,196.018112 381.009521,190.709778 
	C382.283569,190.973297 383.572876,191.606628 385.434937,192.521271 
	C385.675018,190.680466 386.017578,189.278656 386.017517,187.876877 
	C386.015167,140.972992 385.980133,94.069122 385.927002,46.714966 
	C386.742523,48.100925 388.296661,49.931866 388.310303,51.774193 
	C388.477783,74.428238 388.427734,97.083939 388.418365,119.739212 
	C388.407318,146.392395 388.387329,173.045593 388.347900,199.698746 
	C388.345184,201.522186 388.147430,203.345322 387.878693,205.531906 
z"/>
<path fill="#016473" opacity="1.000000" stroke="none" 
	d="
M354.099518,154.134247 
	C354.095184,154.393829 354.095398,154.653412 354.104431,155.104874 
	C353.477478,155.148392 352.504181,155.208282 352.267548,154.819641 
	C349.663269,150.542480 347.224762,146.164719 344.641205,141.874496 
	C340.540100,135.064316 336.335083,128.316757 332.225311,121.511719 
	C327.780701,114.152298 323.409515,106.748535 318.969299,99.386414 
	C318.216064,98.137550 317.117859,97.082748 316.455444,95.795975 
	C315.003632,92.975784 313.689789,90.081932 312.393616,87.185043 
	C311.198029,84.512939 310.366821,81.640388 308.896790,79.137039 
	C306.513092,75.077911 303.731201,71.253120 301.130676,67.320625 
	C298.618622,63.521938 296.161163,59.686577 293.608856,55.915264 
	C291.525269,52.836514 289.337219,49.828449 287.031372,46.504658 
	C289.505676,47.934929 293.467865,49.056953 294.547821,51.469311 
	C298.692169,60.726803 304.301575,68.882210 310.314911,76.954079 
	C312.695343,80.149399 313.215576,84.728271 314.595123,88.672874 
	C314.968384,89.740189 315.250854,90.869743 315.806824,91.837540 
	C318.688660,96.853859 321.565948,101.876160 324.601868,106.799530 
	C326.972626,110.644203 329.675476,114.284134 332.044922,118.129532 
	C334.995422,122.917938 337.535675,127.970383 340.653809,132.641266 
	C344.346283,138.172485 348.466003,143.418503 352.626526,149.350739 
	C353.268158,151.320297 353.683838,152.727280 354.099518,154.134247 
z"/>
<path fill="#063A75" opacity="1.000000" stroke="none" 
	d="
M354.430206,154.101776 
	C353.683838,152.727280 353.268158,151.320297 352.845764,149.738388 
	C353.435822,146.343262 354.535858,143.125397 354.550751,139.902512 
	C354.685425,110.774933 354.594574,81.646332 354.705719,52.518551 
	C354.713654,50.437599 355.793854,48.360741 356.735840,46.274406 
	C357.053070,77.861313 357.013245,109.455803 356.962585,141.050278 
	C356.956177,145.040405 356.892731,149.030441 356.794495,153.480835 
	C356.075775,153.983871 355.418335,154.026581 354.430206,154.101776 
z"/>
<path fill="#000102" opacity="1.000000" stroke="none" 
	d="
M497.525452,137.309235 
	C502.540405,138.274170 507.237793,138.760635 511.632965,140.181808 
	C520.933044,143.188980 526.280762,149.732117 527.017700,159.622543 
	C527.864136,170.980835 525.730713,181.216141 514.110168,186.330917 
	C509.491791,188.363693 504.259705,189.680466 499.231171,189.960373 
	C489.101898,190.524200 478.918976,190.053146 468.761597,190.218201 
	C464.698669,190.284225 463.074127,188.686722 463.106537,184.625443 
	C463.218231,170.635590 463.215790,156.643768 463.103973,142.653900 
	C463.072479,138.712372 464.404968,136.820221 468.599304,136.926743 
	C478.086487,137.167664 487.579987,137.160507 497.525452,137.309235 
z"/>
<path fill="#010102" opacity="1.000000" stroke="none" 
	d="
M479.006409,68.058914 
	C488.111755,68.683197 496.813995,68.713768 505.302155,70.077057 
	C516.713989,71.909927 522.638000,79.130959 522.855713,89.756065 
	C523.121643,102.734467 518.074158,111.191269 506.324371,112.840118 
	C493.235321,114.676926 479.834076,114.372864 466.561340,114.661804 
	C465.465027,114.685669 463.361145,112.136887 463.333923,110.751831 
	C463.082062,97.934959 463.188843,85.111122 463.179413,72.289314 
	C463.177277,69.369881 464.656708,68.063805 467.517822,68.083290 
	C471.180969,68.108246 474.844543,68.069878 479.006409,68.058914 
z"/>
<path fill="#000101" opacity="1.000000" stroke="none" 
	d="
M674.879883,160.110046 
	C673.033447,148.405136 674.349182,137.372101 677.705017,126.609856 
	C681.693054,113.820389 691.859802,106.532425 705.469849,106.199242 
	C719.421082,105.857704 730.354614,112.587372 734.844666,125.113091 
	C740.466858,140.796921 740.450378,156.863617 735.901306,172.769394 
	C731.693726,187.481079 722.066223,194.221283 706.644775,194.206985 
	C691.289734,194.192749 681.665466,187.292480 677.288574,172.785980 
	C676.095520,168.831696 675.685181,164.641235 674.879883,160.110046 
z"/>
<path fill="#010102" opacity="1.000000" stroke="none" 
	d="
M1386.853027,167.573029 
	C1384.719360,188.952499 1369.006714,196.502991 1352.093140,195.933273 
	C1342.811279,195.620621 1336.709839,191.157776 1334.724976,183.661041 
	C1332.329712,174.614395 1335.218384,165.137589 1342.854614,160.939285 
	C1347.827271,158.205399 1353.596924,156.407333 1359.220947,155.499481 
	C1366.558228,154.315063 1374.106934,154.463089 1381.559937,153.964783 
	C1385.336914,153.712234 1387.176514,155.231308 1386.965332,159.143784 
	C1386.822144,161.797058 1386.907715,164.462692 1386.853027,167.573029 
z"/>
<path fill="#066B9F" opacity="1.000000" stroke="none" 
	d="
M85.662888,66.301399 
	C85.821327,67.872215 85.814316,69.787720 85.532791,71.893051 
	C85.337997,70.270607 85.417717,68.458351 85.662888,66.301399 
z"/>
<path fill="#066B9F" opacity="1.000000" stroke="none" 
	d="
M85.040527,47.332329 
	C85.435379,48.160877 85.843208,49.341599 86.054749,50.779861 
	C85.590141,49.919773 85.321823,48.802139 85.040527,47.332329 
z"/>
<path fill="#063A75" opacity="1.000000" stroke="none" 
	d="
M378.720215,185.648560 
	C376.900452,184.756882 374.909149,183.693848 373.347534,182.185883 
	C371.983215,180.868408 370.809326,179.172348 370.080231,177.423080 
	C369.100555,175.072556 368.629303,172.510117 367.964355,169.712524 
	C371.571045,174.685577 375.153229,179.984741 378.720215,185.648560 
z"/>
<path fill="#094EA3" opacity="1.000000" stroke="none" 
	d="
M254.019897,174.000000 
	C254.159744,136.195969 254.297134,98.891922 254.468246,61.588028 
	C254.470276,61.145664 254.907227,60.705250 255.632477,59.336868 
	C257.921173,62.648529 259.731445,65.081245 261.343445,67.638931 
	C264.802551,73.127319 267.904755,78.862709 271.675262,84.122612 
	C273.333374,86.435646 276.681763,87.496635 278.508362,89.740211 
	C280.468475,92.147781 282.571655,95.195084 282.802979,98.106949 
	C283.408051,105.723885 283.034851,113.419220 283.035980,121.083305 
	C283.039978,147.741119 283.045013,174.398926 283.032593,201.056732 
	C283.028778,209.256531 281.223938,211.044327 273.038147,211.071320 
	C269.539337,211.082870 266.039886,211.109634 262.541748,211.059433 
	C256.573883,210.973785 254.119232,208.587158 254.054413,202.490311 
	C253.955231,193.161133 254.022949,183.830200 254.019897,174.000000 
z"/>
<path fill="#066B9F" opacity="1.000000" stroke="none" 
	d="
M222.299606,86.753220 
	C221.866348,87.791786 220.929626,89.412292 219.949631,89.438911 
	C211.845215,89.659027 203.731293,89.661911 195.624542,89.506905 
	C194.521835,89.485825 193.442780,88.228249 192.381531,87.182495 
	C202.198898,86.746681 211.987488,86.671562 222.299606,86.753220 
z"/>
<path fill="#084DA2" opacity="1.000000" stroke="none" 
	d="
M222.130905,127.000000 
	C222.130493,152.124146 222.140778,176.748322 222.121521,201.372452 
	C222.116470,207.844299 221.835571,208.102524 215.358185,208.135223 
	C209.867828,208.162949 204.366287,207.925201 198.890015,208.203873 
	C194.263931,208.439301 192.838394,206.559311 192.868210,202.072311 
	C193.021881,178.946594 192.937531,155.819321 192.937332,132.692581 
	C192.937241,122.210678 193.061234,111.726700 192.882172,101.247879 
	C192.808899,96.959015 193.563705,95.002869 198.705643,95.580292 
	C204.940842,96.280495 211.344788,95.954994 217.634674,95.502617 
	C221.106323,95.252930 222.139984,96.402184 222.125000,99.546921 
	C222.082169,108.531075 222.122757,117.515610 222.130905,127.000000 
z"/>
</svg>